<svg xmlns="http://www.w3.org/2000/svg" viewBox="0 0 64 64" fill="none" aria-label="FindBack" role="img">
  <!--
    FindBack mark — LIGHT-BACKGROUND variant.
    Hard-coded palette so it works without the brand's CSS variables
    (e.g., embedded in emails, exported PDFs, README badges).
      • Strokes:  brand primary   #7C2907 (terracotta)
      • Item:     surface         #FFFFFF
  -->
  <!-- Item: stroke-only (no fill). Page surface shows through the pin. -->
  <rect x="20" y="18" width="16" height="12" rx="2.5" ry="2.5"
        fill="none" stroke="#7C2907" stroke-width="2.25" stroke-linejoin="round"/>
  <line x1="28" y1="18" x2="28" y2="30" stroke="#7C2907" stroke-width="2.25" stroke-linecap="round"/>
  <!-- Pin head -->
  <path d="M28 6
           a16 16 0 0 1 16 16
           c0 8 -7 14 -11 22
           c-1.5 3 -2.5 5 -5 6
           c-2.5 -1 -3.5 -3 -5 -6
           c-4 -8 -11 -14 -11 -22
           a16 16 0 0 1 16 -16 z"
        fill="none" stroke="#7C2907" stroke-width="3" stroke-linejoin="round"/>
  <!-- Recovery arrow -->
  <path d="M28 24 C 36 24, 44 22, 50 18"
        fill="none" stroke="#7C2907" stroke-width="3" stroke-linecap="round"/>
  <path d="M50 18 l-6 0.5 m6 -0.5 l-1.5 -5.5"
        fill="none" stroke="#7C2907" stroke-width="3"
        stroke-linecap="round" stroke-linejoin="round"/>
</svg>